<svg width="352" height="383" viewBox="0 0 352 383" fill="none" xmlns="http://www.w3.org/2000/svg">
<g id="Group 18">
<g id="Group 26">
<rect id="Rectangle" x="29.543" y="23.7578" width="141.331" height="293.053" rx="22" fill="url(#paint0_linear_2_164)"/>
<path id="Blogr" fill-rule="evenodd" clip-rule="evenodd" d="M84.3175 177.947V159.547H87.8199V177.947H84.3175ZM69.0322 177.947V160.435H75.4866C76.6874 160.435 77.7256 160.62 78.6012 160.99C79.4768 161.36 80.1522 161.886 80.6275 162.568C81.1029 163.251 81.3405 164.052 81.3405 164.973C81.3405 165.812 81.1571 166.548 80.7902 167.181C80.4232 167.814 79.9062 168.311 79.2391 168.673C80.1397 169.018 80.8402 169.565 81.3405 170.313C81.8409 171.061 82.091 171.945 82.091 172.965C82.091 173.984 81.8242 174.864 81.2905 175.604C80.7568 176.344 80.0063 176.919 79.039 177.33C78.0716 177.741 76.9292 177.947 75.6117 177.947H69.0322ZM72.6347 163.469V167.489H75.0863C75.9035 167.489 76.5331 167.32 76.9751 166.983C77.417 166.646 77.638 166.149 77.638 165.491C77.638 164.833 77.417 164.332 76.9751 163.987C76.5331 163.641 75.9035 163.469 75.0863 163.469H72.6347ZM75.4365 174.913H72.6347V170.325H75.4365C76.3705 170.325 77.0918 170.523 77.6005 170.917C78.1092 171.312 78.3635 171.879 78.3635 172.619C78.3635 173.359 78.1092 173.927 77.6005 174.321C77.0918 174.716 76.3705 174.913 75.4365 174.913ZM94.2492 177.799C95.0831 178.144 95.9921 178.317 96.9761 178.317C97.9767 178.317 98.8982 178.144 99.7404 177.799C100.583 177.454 101.316 176.969 101.942 176.344C102.567 175.719 103.055 174.987 103.405 174.149C103.756 173.31 103.931 172.397 103.931 171.411C103.931 170.424 103.76 169.516 103.418 168.685C103.076 167.855 102.597 167.131 101.979 166.515C101.362 165.898 100.637 165.417 99.803 165.072C98.9691 164.727 98.0601 164.554 97.0761 164.554C96.0755 164.554 95.154 164.727 94.3118 165.072C93.4695 165.417 92.7357 165.902 92.1103 166.527C91.4849 167.152 90.997 167.88 90.6468 168.71C90.2966 169.54 90.1214 170.449 90.1214 171.435C90.1214 172.422 90.2924 173.335 90.6343 174.173C90.9762 175.012 91.4557 175.739 92.0728 176.356C92.6898 176.973 93.4153 177.454 94.2492 177.799ZM97.0261 175.209C97.6599 175.209 98.2269 175.045 98.7272 174.716C99.2276 174.387 99.6237 173.939 99.9155 173.372C100.207 172.804 100.353 172.159 100.353 171.435C100.353 170.712 100.207 170.067 99.9155 169.499C99.6237 168.932 99.2276 168.484 98.7272 168.155C98.2269 167.826 97.6599 167.662 97.0261 167.662C96.3923 167.662 95.8253 167.826 95.325 168.155C94.8246 168.484 94.4285 168.932 94.1367 169.499C93.8448 170.067 93.6989 170.712 93.6989 171.435C93.6989 172.159 93.8448 172.804 94.1367 173.372C94.4285 173.939 94.8246 174.387 95.325 174.716C95.8253 175.045 96.3923 175.209 97.0261 175.209ZM109.322 177.084C110.047 177.413 110.827 177.577 111.661 177.577C112.495 177.577 113.258 177.408 113.95 177.071C114.642 176.734 115.213 176.27 115.664 175.678V176.738C115.664 177.429 115.53 178.033 115.263 178.551C114.997 179.069 114.625 179.472 114.15 179.76C113.675 180.048 113.112 180.191 112.462 180.191C111.861 180.191 111.323 180.056 110.848 179.785C110.373 179.513 109.985 179.139 109.685 178.662L106.332 179.476C106.666 180.2 107.125 180.833 107.708 181.375C108.292 181.918 108.976 182.341 109.76 182.646C110.544 182.95 111.427 183.102 112.411 183.102C113.412 183.102 114.325 182.942 115.151 182.621C115.976 182.3 116.689 181.844 117.29 181.252C117.89 180.66 118.353 179.953 118.678 179.131C119.003 178.309 119.166 177.396 119.166 176.393V164.924H115.939L115.864 166.527C115.413 165.886 114.846 165.397 114.163 165.06C113.479 164.722 112.712 164.554 111.861 164.554C110.994 164.554 110.189 164.722 109.447 165.06C108.705 165.397 108.054 165.861 107.496 166.453C106.937 167.045 106.503 167.74 106.195 168.537C105.886 169.335 105.732 170.202 105.732 171.139C105.732 172.044 105.882 172.887 106.182 173.668C106.482 174.449 106.899 175.131 107.433 175.715C107.967 176.299 108.596 176.755 109.322 177.084ZM112.512 174.519C113.129 174.519 113.675 174.366 114.15 174.062C114.625 173.758 115.005 173.347 115.288 172.829C115.572 172.311 115.714 171.723 115.714 171.065C115.714 170.408 115.572 169.82 115.288 169.302C115.005 168.784 114.625 168.373 114.15 168.069C113.675 167.764 113.129 167.612 112.512 167.612C111.894 167.612 111.348 167.764 110.873 168.069C110.398 168.373 110.018 168.784 109.735 169.302C109.451 169.82 109.309 170.408 109.309 171.065C109.309 171.723 109.451 172.311 109.735 172.829C110.018 173.347 110.398 173.758 110.873 174.062C111.348 174.366 111.894 174.519 112.512 174.519ZM125.195 164.924H121.968V177.947H125.47V171.559C125.47 170.49 125.729 169.664 126.246 169.08C126.763 168.496 127.505 168.204 128.472 168.204C128.672 168.204 128.868 168.217 129.06 168.241C129.252 168.266 129.44 168.311 129.623 168.377L129.998 164.973C129.815 164.907 129.606 164.854 129.373 164.813C129.139 164.772 128.906 164.751 128.672 164.751C127.905 164.751 127.238 164.936 126.671 165.306C126.104 165.676 125.654 166.206 125.32 166.897L125.195 164.924Z" fill="white"/>
<g id="Group 9">
<g id="Fill 1" filter="url(#filter0_d_2_164)">
<path fill-rule="evenodd" clip-rule="evenodd" d="M165.637 298.722C165.637 306.056 160.223 312.376 152.891 312.376H48.3352C41.0032 312.376 34.6279 306.056 34.6279 298.722V41.1159C34.6279 33.7812 41.0032 28.4189 48.3352 28.4189H60.4229C62.9783 28.4189 63.9223 28.1266 64.077 31.367C64.1577 33.05 64.7751 34.3584 65.7639 35.441C66.7519 36.5035 68.1122 37.3767 69.6758 37.8665C70.7363 38.1984 71.9172 38.4998 73.0436 38.4998H75.3261H126.011H128.294C129.421 38.4998 130.602 38.1297 131.662 37.7977C133.227 37.308 134.585 36.4908 135.574 35.4478C136.564 34.3846 137.181 33.1315 137.261 31.4485C137.415 28.2088 138.36 28.4189 140.916 28.4189H152.891C160.223 28.4189 165.637 33.7812 165.637 41.1159V298.722ZM92.4812 29.6787H108.857C109.553 29.6787 110.117 30.1101 110.117 30.7285C110.117 31.3475 109.553 31.7789 108.857 31.7789H92.4812C91.7846 31.7789 91.2219 31.3475 91.2219 30.7285C91.2219 30.1101 91.7846 29.6787 92.4812 29.6787V29.6787ZM117.465 30.0406C117.465 31.0552 116.642 31.8784 115.628 31.8784C114.613 31.8784 113.791 31.0552 113.791 30.0406C113.791 29.026 114.613 28.2028 115.628 28.2028C116.642 28.2028 117.465 29.026 117.465 30.0406V30.0406ZM173.615 88.9063V41.9435C173.615 30.066 163.99 20.4375 152.116 20.4375H47.6581C35.4112 20.4375 25.39 30.4623 25.39 42.7144V59.9228C24.6942 59.9228 24.1299 60.4865 24.1299 61.1826V70.0036C24.1299 70.6997 24.6942 71.2642 25.39 71.2642V81.7653C24.6942 81.7653 24.1299 82.3298 24.1299 83.0258V101.928C24.1299 102.624 24.6942 103.188 25.39 103.188V109.489C24.6942 109.489 24.1299 110.053 24.1299 110.749V129.651C24.1299 130.347 24.6942 130.912 25.39 130.912V299.69C25.39 311.98 35.4418 322.037 47.7276 322.037H152.116C163.94 322.037 173.615 312.358 173.615 300.53V123.771H174.035C174.731 123.771 175.295 123.206 175.295 122.51V90.1668C175.295 89.4708 174.731 88.9063 174.035 88.9063H173.615Z" fill="#1D1D25"/>
</g>
<path id="Fill 5" fill-rule="evenodd" clip-rule="evenodd" d="M108.857 29.6797H92.4818C91.7852 29.6797 91.2217 30.1118 91.2217 30.7302C91.2217 31.3485 91.7852 31.7799 92.4818 31.7799H108.857C109.553 31.7799 110.117 31.3485 110.117 30.7302C110.117 30.1118 109.553 29.6797 108.857 29.6797" fill="black"/>
<path id="Fill 7" fill-rule="evenodd" clip-rule="evenodd" d="M115.628 28.2031C114.614 28.2031 113.791 29.0263 113.791 30.0409C113.791 31.0555 114.614 31.8787 115.628 31.8787C116.642 31.8787 117.465 31.0555 117.465 30.0409C117.465 29.0263 116.642 28.2031 115.628 28.2031" fill="black"/>
</g>
</g>
<g id="Group 26 Copy" clip-path="url(#clip0_2_164)">
<rect id="Rectangle_2" x="204.819" y="67.3984" width="141.331" height="293.053" rx="22" fill="url(#paint1_linear_2_164)"/>
<rect id="Rectangle_3" x="209.669" y="71.5547" width="131.17" height="287.04" rx="22" fill="white"/>
<path id="Rectangle Copy" d="M209.669 79.5547C209.669 75.1364 213.251 71.5547 217.669 71.5547H332.839C337.258 71.5547 340.839 75.1364 340.839 79.5547V122.316H209.669V79.5547Z" fill="url(#paint2_linear_2_164)"/>
<g id="Group 4">
<g id="Rectangle_4" filter="url(#filter1_d_2_164)">
<rect x="217.527" y="103.586" width="115.454" height="40.4878" rx="4" fill="white"/>
</g>
<g id="Rectangle Copy 2" filter="url(#filter2_d_2_164)">
<rect x="217.527" y="153.742" width="115.454" height="40.4878" rx="4" fill="white"/>
</g>
<g id="Rectangle Copy 3" filter="url(#filter3_d_2_164)">
<rect x="217.527" y="203.898" width="115.454" height="40.4878" rx="4" fill="white"/>
</g>
<g id="Rectangle Copy 4" filter="url(#filter4_d_2_164)">
<rect x="217.527" y="254.055" width="115.454" height="40.4878" rx="4" fill="white"/>
</g>
<g id="Rectangle Copy 5" filter="url(#filter5_d_2_164)">
<rect x="217.527" y="304.211" width="115.454" height="40.4878" rx="4" fill="white"/>
</g>
</g>
<path id="Blogr_2" fill-rule="evenodd" clip-rule="evenodd" d="M252.855 224.528V197.969H257.911V224.528H252.855ZM230.792 224.528V199.25H240.108C241.842 199.25 243.34 199.517 244.604 200.051C245.868 200.586 246.843 201.345 247.529 202.33C248.215 203.315 248.558 204.472 248.558 205.801C248.558 207.012 248.293 208.074 247.764 208.988C247.234 209.901 246.488 210.619 245.525 211.142C246.825 211.64 247.836 212.429 248.558 213.509C249.28 214.589 249.641 215.865 249.641 217.336C249.641 218.808 249.256 220.078 248.486 221.146C247.716 222.214 246.632 223.044 245.236 223.638C243.84 224.231 242.191 224.528 240.289 224.528H230.792ZM235.992 203.629V209.433H239.531C240.71 209.433 241.619 209.189 242.257 208.703C242.895 208.216 243.214 207.498 243.214 206.549C243.214 205.599 242.895 204.876 242.257 204.377C241.619 203.879 240.71 203.629 239.531 203.629H235.992ZM240.036 220.149H235.992V213.527H240.036C241.384 213.527 242.425 213.812 243.16 214.381C243.894 214.951 244.261 215.77 244.261 216.838C244.261 217.906 243.894 218.725 243.16 219.294C242.425 219.864 241.384 220.149 240.036 220.149ZM267.191 224.314C268.395 224.813 269.706 225.062 271.127 225.062C272.571 225.062 273.901 224.813 275.117 224.314C276.333 223.816 277.392 223.116 278.295 222.214C279.197 221.312 279.902 220.256 280.407 219.045C280.913 217.835 281.165 216.517 281.165 215.093C281.165 213.669 280.919 212.358 280.425 211.159C279.932 209.961 279.24 208.916 278.349 208.026C277.458 207.136 276.411 206.442 275.207 205.944C274.004 205.445 272.692 205.196 271.271 205.196C269.827 205.196 268.497 205.445 267.281 205.944C266.065 206.442 265.006 207.142 264.103 208.044C263.201 208.946 262.497 209.996 261.991 211.195C261.485 212.394 261.233 213.705 261.233 215.129C261.233 216.553 261.479 217.87 261.973 219.081C262.466 220.291 263.159 221.342 264.049 222.232C264.94 223.122 265.987 223.816 267.191 224.314ZM271.199 220.576C272.114 220.576 272.932 220.339 273.655 219.864C274.377 219.389 274.948 218.743 275.37 217.924C275.791 217.105 276.002 216.173 276.002 215.129C276.002 214.085 275.791 213.153 275.37 212.334C274.948 211.515 274.377 210.869 273.655 210.394C272.932 209.919 272.114 209.682 271.199 209.682C270.284 209.682 269.466 209.919 268.744 210.394C268.021 210.869 267.45 211.515 267.028 212.334C266.607 213.153 266.396 214.085 266.396 215.129C266.396 216.173 266.607 217.105 267.028 217.924C267.45 218.743 268.021 219.389 268.744 219.864C269.466 220.339 270.284 220.576 271.199 220.576ZM288.947 223.282C289.994 223.757 291.12 223.994 292.323 223.994C293.527 223.994 294.628 223.751 295.627 223.264C296.626 222.777 297.451 222.107 298.101 221.253V222.783C298.101 223.78 297.908 224.653 297.523 225.4C297.138 226.148 296.602 226.729 295.916 227.145C295.23 227.56 294.418 227.768 293.479 227.768C292.612 227.768 291.836 227.572 291.15 227.18C290.464 226.789 289.904 226.249 289.471 225.56L284.632 226.735C285.113 227.78 285.775 228.693 286.618 229.477C287.461 230.26 288.448 230.871 289.579 231.31C290.71 231.749 291.986 231.969 293.407 231.969C294.851 231.969 296.169 231.737 297.361 231.275C298.552 230.812 299.581 230.153 300.448 229.299C301.315 228.444 301.983 227.424 302.452 226.237C302.922 225.05 303.156 223.733 303.156 222.285V205.73H298.498L298.39 208.044C297.74 207.118 296.921 206.412 295.934 205.926C294.947 205.439 293.84 205.196 292.612 205.196C291.36 205.196 290.199 205.439 289.128 205.926C288.056 206.412 287.118 207.083 286.311 207.937C285.505 208.792 284.879 209.795 284.433 210.946C283.988 212.097 283.765 213.349 283.765 214.702C283.765 216.007 283.982 217.224 284.415 218.351C284.849 219.478 285.45 220.463 286.221 221.306C286.991 222.149 287.9 222.807 288.947 223.282ZM293.551 219.579C294.442 219.579 295.23 219.36 295.916 218.921C296.602 218.481 297.15 217.888 297.559 217.14C297.969 216.393 298.173 215.544 298.173 214.595C298.173 213.646 297.969 212.797 297.559 212.049C297.15 211.302 296.602 210.708 295.916 210.269C295.23 209.83 294.442 209.611 293.551 209.611C292.66 209.611 291.872 209.83 291.186 210.269C290.5 210.708 289.952 211.302 289.543 212.049C289.134 212.797 288.929 213.646 288.929 214.595C288.929 215.544 289.134 216.393 289.543 217.14C289.952 217.888 290.5 218.481 291.186 218.921C291.872 219.36 292.66 219.579 293.551 219.579ZM311.859 205.73H307.201V224.528H312.256V215.307C312.256 213.764 312.629 212.572 313.375 211.729C314.122 210.886 315.193 210.465 316.589 210.465C316.878 210.465 317.161 210.483 317.438 210.518C317.715 210.554 317.986 210.619 318.25 210.714L318.792 205.801C318.527 205.706 318.226 205.629 317.889 205.57C317.552 205.51 317.215 205.481 316.878 205.481C315.771 205.481 314.808 205.748 313.989 206.282C313.171 206.816 312.521 207.581 312.039 208.578L311.859 205.73Z" fill="white"/>
<g id="Group 9_2">
<g id="Fill 1_2" filter="url(#filter6_d_2_164)">
<path fill-rule="evenodd" clip-rule="evenodd" d="M340.914 342.37C340.914 349.705 335.5 356.024 328.168 356.024H223.613C216.281 356.024 209.905 349.705 209.905 342.37V84.7643C209.905 77.4296 216.281 72.0673 223.613 72.0673H235.7C238.256 72.0673 239.2 71.775 239.354 75.0154C239.435 76.6984 240.052 78.0068 241.041 79.0895C242.029 80.1519 243.39 81.0252 244.953 81.5149C246.014 81.8469 247.195 82.1482 248.321 82.1482H250.603H301.288H303.572C304.698 82.1482 305.879 81.7781 306.94 81.4461C308.504 80.9564 309.863 80.1392 310.851 79.0962C311.841 78.033 312.458 76.7799 312.538 75.0969C312.692 71.8572 313.638 72.0673 316.193 72.0673H328.168C335.5 72.0673 340.914 77.4296 340.914 84.7643V342.37ZM267.759 73.3272H284.134C284.83 73.3272 285.394 73.7586 285.394 74.3769C285.394 74.996 284.83 75.4274 284.134 75.4274H267.759C267.062 75.4274 266.499 74.996 266.499 74.3769C266.499 73.7586 267.062 73.3272 267.759 73.3272V73.3272ZM292.743 73.689C292.743 74.7036 291.92 75.5268 290.906 75.5268C289.891 75.5268 289.068 74.7036 289.068 73.689C289.068 72.6744 289.891 71.8513 290.906 71.8513C291.92 71.8513 292.743 72.6744 292.743 73.689V73.689ZM348.893 132.555V85.592C348.893 73.7145 339.268 64.0859 327.394 64.0859H222.935C210.689 64.0859 200.667 74.1107 200.667 86.3628V103.571C199.972 103.571 199.407 104.135 199.407 104.831V113.652C199.407 114.348 199.972 114.913 200.667 114.913V125.414C199.972 125.414 199.407 125.978 199.407 126.674V145.577C199.407 146.272 199.972 146.837 200.667 146.837V153.137C199.972 153.137 199.407 153.702 199.407 154.397V173.3C199.407 173.996 199.972 174.56 200.667 174.56V343.338C200.667 355.629 210.719 365.685 223.005 365.685H327.394C339.218 365.685 348.893 356.007 348.893 344.179V167.419H349.312C350.009 167.419 350.572 166.855 350.572 166.159V133.815C350.572 133.119 350.009 132.555 349.312 132.555H348.893Z" fill="#1D1D25"/>
</g>
<path id="Fill 5_2" fill-rule="evenodd" clip-rule="evenodd" d="M284.135 73.3281H267.759C267.063 73.3281 266.499 73.7603 266.499 74.3786C266.499 74.9969 267.063 75.4283 267.759 75.4283H284.135C284.831 75.4283 285.395 74.9969 285.395 74.3786C285.395 73.7603 284.831 73.3281 284.135 73.3281Z" fill="black"/>
<path id="Fill 7_2" fill-rule="evenodd" clip-rule="evenodd" d="M290.905 71.8516C289.891 71.8516 289.068 72.6747 289.068 73.6893C289.068 74.7039 289.891 75.5271 290.905 75.5271C291.92 75.5271 292.743 74.7039 292.743 73.6893C292.743 72.6747 291.92 71.8516 290.905 71.8516Z" fill="black"/>
</g>
</g>
</g>
<defs>
<filter id="filter0_d_2_164" x="-15.8701" y="0.4375" width="231.165" height="381.602" filterUnits="userSpaceOnUse" color-interpolation-filters="sRGB">
<feFlood flood-opacity="0" result="BackgroundImageFix"/>
<feColorMatrix in="SourceAlpha" type="matrix" values="0 0 0 0 0 0 0 0 0 0 0 0 0 0 0 0 0 0 127 0" result="hardAlpha"/>
<feOffset dy="20"/>
<feGaussianBlur stdDeviation="20"/>
<feColorMatrix type="matrix" values="0 0 0 0 0.421822 0 0 0 0 0.554338 0 0 0 0 0.89371 0 0 0 0.243444 0"/>
<feBlend mode="normal" in2="BackgroundImageFix" result="effect1_dropShadow_2_164"/>
<feBlend mode="normal" in="SourceGraphic" in2="effect1_dropShadow_2_164" result="shape"/>
</filter>
<filter id="filter1_d_2_164" x="197.527" y="93.5859" width="155.454" height="80.4844" filterUnits="userSpaceOnUse" color-interpolation-filters="sRGB">
<feFlood flood-opacity="0" result="BackgroundImageFix"/>
<feColorMatrix in="SourceAlpha" type="matrix" values="0 0 0 0 0 0 0 0 0 0 0 0 0 0 0 0 0 0 127 0" result="hardAlpha"/>
<feOffset dy="10"/>
<feGaussianBlur stdDeviation="10"/>
<feColorMatrix type="matrix" values="0 0 0 0 0.421822 0 0 0 0 0.554338 0 0 0 0 0.89371 0 0 0 0.243444 0"/>
<feBlend mode="normal" in2="BackgroundImageFix" result="effect1_dropShadow_2_164"/>
<feBlend mode="normal" in="SourceGraphic" in2="effect1_dropShadow_2_164" result="shape"/>
</filter>
<filter id="filter2_d_2_164" x="197.527" y="143.742" width="155.454" height="80.4844" filterUnits="userSpaceOnUse" color-interpolation-filters="sRGB">
<feFlood flood-opacity="0" result="BackgroundImageFix"/>
<feColorMatrix in="SourceAlpha" type="matrix" values="0 0 0 0 0 0 0 0 0 0 0 0 0 0 0 0 0 0 127 0" result="hardAlpha"/>
<feOffset dy="10"/>
<feGaussianBlur stdDeviation="10"/>
<feColorMatrix type="matrix" values="0 0 0 0 0.421822 0 0 0 0 0.554338 0 0 0 0 0.89371 0 0 0 0.243444 0"/>
<feBlend mode="normal" in2="BackgroundImageFix" result="effect1_dropShadow_2_164"/>
<feBlend mode="normal" in="SourceGraphic" in2="effect1_dropShadow_2_164" result="shape"/>
</filter>
<filter id="filter3_d_2_164" x="197.527" y="193.898" width="155.454" height="80.4844" filterUnits="userSpaceOnUse" color-interpolation-filters="sRGB">
<feFlood flood-opacity="0" result="BackgroundImageFix"/>
<feColorMatrix in="SourceAlpha" type="matrix" values="0 0 0 0 0 0 0 0 0 0 0 0 0 0 0 0 0 0 127 0" result="hardAlpha"/>
<feOffset dy="10"/>
<feGaussianBlur stdDeviation="10"/>
<feColorMatrix type="matrix" values="0 0 0 0 0.421822 0 0 0 0 0.554338 0 0 0 0 0.89371 0 0 0 0.243444 0"/>
<feBlend mode="normal" in2="BackgroundImageFix" result="effect1_dropShadow_2_164"/>
<feBlend mode="normal" in="SourceGraphic" in2="effect1_dropShadow_2_164" result="shape"/>
</filter>
<filter id="filter4_d_2_164" x="197.527" y="244.055" width="155.454" height="80.4844" filterUnits="userSpaceOnUse" color-interpolation-filters="sRGB">
<feFlood flood-opacity="0" result="BackgroundImageFix"/>
<feColorMatrix in="SourceAlpha" type="matrix" values="0 0 0 0 0 0 0 0 0 0 0 0 0 0 0 0 0 0 127 0" result="hardAlpha"/>
<feOffset dy="10"/>
<feGaussianBlur stdDeviation="10"/>
<feColorMatrix type="matrix" values="0 0 0 0 0.421822 0 0 0 0 0.554338 0 0 0 0 0.89371 0 0 0 0.243444 0"/>
<feBlend mode="normal" in2="BackgroundImageFix" result="effect1_dropShadow_2_164"/>
<feBlend mode="normal" in="SourceGraphic" in2="effect1_dropShadow_2_164" result="shape"/>
</filter>
<filter id="filter5_d_2_164" x="197.527" y="294.211" width="155.454" height="80.4844" filterUnits="userSpaceOnUse" color-interpolation-filters="sRGB">
<feFlood flood-opacity="0" result="BackgroundImageFix"/>
<feColorMatrix in="SourceAlpha" type="matrix" values="0 0 0 0 0 0 0 0 0 0 0 0 0 0 0 0 0 0 127 0" result="hardAlpha"/>
<feOffset dy="10"/>
<feGaussianBlur stdDeviation="10"/>
<feColorMatrix type="matrix" values="0 0 0 0 0.421822 0 0 0 0 0.554338 0 0 0 0 0.89371 0 0 0 0.243444 0"/>
<feBlend mode="normal" in2="BackgroundImageFix" result="effect1_dropShadow_2_164"/>
<feBlend mode="normal" in="SourceGraphic" in2="effect1_dropShadow_2_164" result="shape"/>
</filter>
<filter id="filter6_d_2_164" x="159.407" y="44.0859" width="231.165" height="381.602" filterUnits="userSpaceOnUse" color-interpolation-filters="sRGB">
<feFlood flood-opacity="0" result="BackgroundImageFix"/>
<feColorMatrix in="SourceAlpha" type="matrix" values="0 0 0 0 0 0 0 0 0 0 0 0 0 0 0 0 0 0 127 0" result="hardAlpha"/>
<feOffset dy="20"/>
<feGaussianBlur stdDeviation="20"/>
<feColorMatrix type="matrix" values="0 0 0 0 0.421822 0 0 0 0 0.554338 0 0 0 0 0.89371 0 0 0 0.243444 0"/>
<feBlend mode="normal" in2="BackgroundImageFix" result="effect1_dropShadow_2_164"/>
<feBlend mode="normal" in="SourceGraphic" in2="effect1_dropShadow_2_164" result="shape"/>
</filter>
<linearGradient id="paint0_linear_2_164" x1="-41.1223" y1="170.284" x2="188.202" y2="280.88" gradientUnits="userSpaceOnUse">
<stop stop-color="#FF8F71"/>
<stop offset="1" stop-color="#FF3E55"/>
</linearGradient>
<linearGradient id="paint1_linear_2_164" x1="134.154" y1="213.925" x2="363.478" y2="324.521" gradientUnits="userSpaceOnUse">
<stop stop-color="#FF8F71"/>
<stop offset="1" stop-color="#FF3E55"/>
</linearGradient>
<linearGradient id="paint2_linear_2_164" x1="144.084" y1="96.9351" x2="178.254" y2="185.234" gradientUnits="userSpaceOnUse">
<stop stop-color="#FF8F71"/>
<stop offset="1" stop-color="#FF3E55"/>
</linearGradient>
<clipPath id="clip0_2_164">
<rect width="152" height="303" fill="white" transform="translate(199.277 63.9375)"/>
</clipPath>
</defs>
</svg>
